# xmcd
#
# Track frame offsets: 
#        150
#        9962
#        22502
#        34095
#        46637
#        58130
#        71650
#        81320
#        94615
#        108460
#        120717
#        131912
#        144262
#        153312
#        165730
#        178430
#        188627
#        202755
#        215802
#        226055
#        239682
#        253035
#        265775
#        279197
#
# Disc length: 3887 seconds
#
# Revision: 1
# Processed by: cddbd v1.5.2PL0 Copyright (c) Steve Scherf et al.
# Submitted via: ExactAudioCopy v0.99pb3
#
DISCID=460f2d18
DTITLE=Lightnin' Slim - Nothin' But The Devil
DYEAR=1996
DGENRE=Blues
TTITLE0=Long Leanie Mama
TTITLE1=My Starter Won't Work (Alt Take)
TTITLE2=It's Mighty Crazy (Alt Take)
TTITLE3=Blues At Night
TTITLE4=I'm Leaving You Baby (Alt Take)
TTITLE5=Feelin' Awful Blue
TTITLE6=Sweet Little Woman (Alt Take)
TTITLE7=Lightnin's Troubles
TTITLE8=I Gonna Leave
TTITLE9=Rooster Blues (Alt Take)
TTITLE10=G.I. Slim
TTITLE11=Driftin' Blues
TTITLE12=Too Close Blues
TTITLE13=My Little Angel Child
TTITLE14=Greyhound Blues
TTITLE15=I Just Don't Know
TTITLE16=Somebody Knockin'
TTITLE17=Just A Lonely Stranger
TTITLE18=Cool Down Baby
TTITLE19=Nothin' But The Devil
TTITLE20=Goin' Away Blues
TTITLE21=I'm Tired Waitin' Baby
TTITLE22=Death Valley Blues
TTITLE23=Hello Mary Lee
EXTD=YEAR: 1996
EXTT0=
EXTT1=
EXTT2=
EXTT3=
EXTT4=
EXTT5=
EXTT6=
EXTT7=
EXTT8=
EXTT9=
EXTT10=
EXTT11=
EXTT12=
EXTT13=
EXTT14=
EXTT15=
EXTT16=
EXTT17=
EXTT18=
EXTT19=
EXTT20=
EXTT21=
EXTT22=
EXTT23=
PLAYORDER=
